<svg width="466" height="466" viewBox="0 0 466 466" fill="none" xmlns="http://www.w3.org/2000/svg">
<path d="M279.152 44.4249C279.955 40.659 279.492 36.7334 277.834 33.2581C276.176 29.7829 273.417 26.9526 269.984 25.2073C266.552 23.462 262.639 22.8993 258.855 23.6068C255.07 24.3143 251.624 26.2523 249.054 29.1196L51.0409 250.429C48.7924 252.943 47.3196 256.054 46.8002 259.386C46.2808 262.719 46.7371 266.13 48.114 269.209C49.4909 272.288 51.7295 274.903 54.5597 276.737C57.3898 278.572 60.6904 279.548 64.0632 279.548H217.163L186.762 421.489C185.959 425.255 186.422 429.181 188.08 432.656C189.738 436.131 192.498 438.961 195.93 440.707C199.362 442.452 203.275 443.015 207.06 442.307C210.844 441.6 214.29 439.662 216.86 436.794L414.873 215.485C417.122 212.971 418.594 209.86 419.114 206.528C419.633 203.195 419.177 199.784 417.8 196.705C416.423 193.626 414.184 191.011 411.354 189.177C408.524 187.342 405.224 186.366 401.851 186.366H248.752L279.152 44.4249Z" fill="url(#paint0_linear_213_174)"/>
<defs>
<linearGradient id="paint0_linear_213_174" x1="232.957" y1="23.3093" x2="419" y2="704" gradientUnits="userSpaceOnUse">
<stop stop-color="#73A1FB"/>
<stop offset="1" stop-color="#033392"/>
</linearGradient>
</defs>
</svg>
